<svg xmlns="http://www.w3.org/2000/svg" viewBox="0 0 600 480">
  <defs>
    <linearGradient id="ab" x1="0" y1="0" x2="1" y2="1">
      <stop offset="0" stop-color="#5B3DF5"/>
      <stop offset="1" stop-color="#17A163"/>
    </linearGradient>
  </defs>
  <rect x="60" y="60" width="480" height="360" rx="24" fill="url(#ab)" opacity="0.08"/>
  <rect x="100" y="120" width="200" height="140" rx="14" fill="#fff" stroke="#E7E3F5" stroke-width="2"/>
  <rect x="120" y="140" width="60" height="10" rx="5" fill="#5B3DF5"/>
  <rect x="120" y="160" width="140" height="8" rx="4" fill="#EDEBFA"/>
  <rect x="120" y="176" width="110" height="8" rx="4" fill="#EDEBFA"/>
  <rect x="120" y="192" width="130" height="8" rx="4" fill="#EDEBFA"/>
  <rect x="320" y="200" width="180" height="120" rx="14" fill="#fff" stroke="#E7E3F5" stroke-width="2"/>
  <circle cx="352" cy="230" r="14" fill="#17A163"/>
  <rect x="376" y="222" width="100" height="8" rx="4" fill="#EDEBFA"/>
  <rect x="376" y="238" width="70" height="8" rx="4" fill="#EDEBFA"/>
  <rect x="340" y="264" width="140" height="34" rx="10" fill="#F6F4FC"/>
  <circle cx="200" cy="330" r="30" fill="#17A163" opacity="0.15"/>
  <circle cx="470" cy="130" r="20" fill="#5B3DF5" opacity="0.15"/>
</svg>
